<?xml version="1.0" encoding="iso-8859-1"?>
<!-- Generator: Adobe Illustrator 19.0.0, SVG Export Plug-In . SVG Version: 6.00 Build 0)  -->
<svg version="1.1" id="Layer_1" xmlns="http://www.w3.org/2000/svg" xmlns:xlink="http://www.w3.org/1999/xlink" x="0px" y="0px"
	 viewBox="0 0 512 512" style="enable-background:new 0 0 512 512;" xml:space="preserve">
<g>
	<g>
		<path style="fill:#7E5C62;" d="M339.276,368.445c-1.125-1.977-3.047-3.375-5.273-3.844c-2.195-0.492-4.539,0.023-6.375,1.359
			c-1.516,1.102-2.922,1.711-4.328,1.859c-4.93,0.617-9.008-3.391-11.024-5.789c-4.195-4.984-7.101-12.367-7.984-20.258
			c-0.883-7.883,0.32-15.727,3.313-21.516c1.391-2.688,4.367-7.211,9.133-8.031c0.297-0.008,0.594-0.031,0.852-0.063
			c2.82-0.375,5.469-2.789,6.563-5.414c0.57-1.367,1.125-2.734,1.859-4.063c6.539-11.773,9.992-25.156,9.992-38.688
			c0-37.625-25.594-69.711-62.242-78.023c-0.578-0.125-1.172-0.195-1.766-0.195h-32c-0.594,0-1.188,0.07-1.773,0.195
			c-36.641,8.32-62.227,40.406-62.227,78.023c0,13.531,3.453,26.914,9.992,38.688c0.734,1.328,1.289,2.695,2.094,4.641
			c1.102,2.617,3.508,4.461,6.328,4.836c0.281,0.039,0.602,0.063,0.93,0.063c7.367,1.258,14.172,13.461,12.367,29.547
			c-0.883,7.891-3.789,15.273-7.984,20.258c-2.016,2.398-6.086,6.398-11.039,5.789c-1.391-0.148-2.805-0.766-4.328-1.867
			c-1.836-1.344-4.148-1.859-6.375-1.352c-2.227,0.477-4.141,1.875-5.273,3.844c-10.156,17.734-14.352,37.898-12.125,58.32
			c4.828,44.148,40.359,79.734,84.461,84.625c3.602,0.406,7.289,0.609,10.953,0.609c3.672,0,7.359-0.203,10.945-0.609
			c44.117-4.891,79.648-40.477,84.477-84.625C353.643,406.336,349.448,386.172,339.276,368.445z"/>
	</g>
	<g>
		<path style="fill:#996459;" d="M334.003,364.601c-2.195-0.492-4.539,0.023-6.375,1.359c-1.516,1.102-2.922,1.711-4.328,1.859
			c-4.93,0.617-9.008-3.391-11.024-5.789c-4.195-4.984-7.101-12.367-7.984-20.258c-0.883-7.883,0.32-15.727,3.313-21.516
			c1.391-2.688,4.367-7.211,9.133-8.031c0.297-0.008,0.594-0.031,0.852-0.063c2.82-0.375,5.469-2.789,6.563-5.414
			c0.57-1.367,1.125-2.734,1.859-4.063c6.539-11.773,9.992-25.156,9.992-38.688c0-37.625-25.594-69.711-62.242-78.023
			c-0.578-0.125-1.172-0.195-1.766-0.195h-16.219v326.206c0.073,0,0.146,0.012,0.219,0.012c3.672,0,7.359-0.203,10.945-0.609
			c44.117-4.891,79.648-40.477,84.477-84.625c2.227-20.43-1.969-40.594-12.141-58.32
			C338.151,366.469,336.229,365.07,334.003,364.601z"/>
	</g>
	<g>
		<g>
			<path style="fill:#868491;" d="M255.995,424c-4.422,0-8-3.578-8-8V304c0-4.422,3.578-8,8-8s8,3.578,8,8v112
				C263.995,420.422,260.417,424,255.995,424z"/>
		</g>
	</g>
	<g>
		<g>
			<path style="fill:#5C546A;" d="M271.995,368h-32c-4.422,0-8-3.578-8-8s3.578-8,8-8h32c4.422,0,8,3.578,8,8
				S276.417,368,271.995,368z"/>
		</g>
	</g>
	<g>
		<path style="fill:#5C546A;" d="M271.987,71.727c-0.148-4.313-3.68-7.727-7.992-7.727h-16c-4.313,0-7.844,3.414-7.992,7.727l-8,232
			c-0.078,2.164,0.734,4.273,2.242,5.828c1.508,1.563,3.578,2.445,5.75,2.445h32c2.172,0,4.242-0.883,5.75-2.445
			c1.508-1.555,2.32-3.664,2.242-5.828L271.987,71.727z"/>
	</g>
	<g>
		<path style="fill:#5C546A;" d="M278.136,410.875c-1.516-1.82-3.766-2.875-6.141-2.875h-32c-2.375,0-4.625,1.055-6.141,2.875
			c-1.523,1.82-2.156,4.219-1.727,6.555l16,88c0.688,3.805,4,6.57,7.867,6.57s7.18-2.766,7.867-6.57l16-88
			C280.292,415.094,279.659,412.695,278.136,410.875z"/>
	</g>
	<g>
		<g>
			<path style="fill:#5C546A;" d="M239.995,32h-16c-4.422,0-8-3.578-8-8s3.578-8,8-8h16c4.422,0,8,3.578,8,8S244.417,32,239.995,32z
				"/>
		</g>
	</g>
	<g>
		<g>
			<path style="fill:#5C546A;" d="M239.995,64h-16c-4.422,0-8-3.578-8-8s3.578-8,8-8h16c4.422,0,8,3.578,8,8S244.417,64,239.995,64z
				"/>
		</g>
	</g>
	<g>
		<g>
			<path style="fill:#5C546A;" d="M287.995,32h-16c-4.422,0-8-3.578-8-8s3.578-8,8-8h16c4.422,0,8,3.578,8,8S292.417,32,287.995,32z
				"/>
		</g>
	</g>
	<g>
		<g>
			<path style="fill:#5C546A;" d="M287.995,64h-16c-4.422,0-8-3.578-8-8s3.578-8,8-8h16c4.422,0,8,3.578,8,8S292.417,64,287.995,64z
				"/>
		</g>
	</g>
	<g>
		<path style="fill:#7E5C62;" d="M255.995,0c-13.234,0-24,10.766-24,24v32c0,13.234,10.766,24,24,24c13.234,0,24-10.766,24-24V24
			C279.995,10.766,269.229,0,255.995,0z"/>
	</g>
</g>
<g>
</g>
<g>
</g>
<g>
</g>
<g>
</g>
<g>
</g>
<g>
</g>
<g>
</g>
<g>
</g>
<g>
</g>
<g>
</g>
<g>
</g>
<g>
</g>
<g>
</g>
<g>
</g>
<g>
</g>
</svg>
